<?xml version="1.0" standalone="no"?>
<!DOCTYPE svg PUBLIC "-//W3C//DTD SVG 20010904//EN"
 "http://www.w3.org/TR/2001/REC-SVG-20010904/DTD/svg10.dtd">
<svg version="1.0" xmlns="http://www.w3.org/2000/svg"
 width="512.000000pt" height="512.000000pt" viewBox="0 0 512.000000 512.000000"
 preserveAspectRatio="xMidYMid meet">

<g transform="translate(0.000000,512.000000) scale(0.100000,-0.100000)"
fill="#EFF0F1" stroke="none">
<path d="M4950 4903 c-267 -234 -569 -373 -945 -433 -94 -15 -376 -40 -452
-40 -15 0 -45 -68 -73 -161 -23 -76 -45 -99 -98 -99 -44 0 -82 38 -82 82 0 18
11 65 24 103 14 39 22 72 20 74 -8 9 -720 12 -764 4 -39 -7 -51 -17 -97 -73
-29 -36 -74 -103 -100 -149 -26 -46 -58 -95 -70 -108 -49 -51 -143 -9 -143 65
0 20 51 118 96 186 19 28 32 51 31 53 -2 1 -59 -9 -128 -23 -150 -30 -343 -93
-502 -164 -114 -51 -118 -54 -151 -109 -125 -208 -195 -427 -212 -665 -6 -86
-10 -103 -30 -123 -33 -32 -87 -31 -121 3 -26 26 -26 27 -20 137 7 136 36 286
81 412 39 109 44 110 -92 -9 -169 -147 -308 -321 -436 -544 l-48 -82 12 -73
c16 -97 55 -217 96 -299 42 -83 43 -111 5 -149 -32 -31 -55 -36 -95 -18 -26
12 -92 127 -116 203 -16 49 -21 40 -50 -83 -79 -343 -63 -715 45 -1045 14 -43
32 -90 39 -104 l14 -26 20 40 c11 21 43 98 72 169 261 642 583 1068 1005 1325
243 149 498 247 1075 414 466 134 889 303 1250 500 143 77 180 84 217 41 14
-16 23 -39 23 -60 0 -50 -40 -78 -294 -204 -394 -196 -696 -312 -1171 -451
-469 -137 -642 -198 -848 -301 -424 -211 -712 -522 -967 -1044 -105 -215 -169
-374 -206 -512 -26 -98 -28 -102 -47 -88 -27 19 -106 115 -113 137 -3 10 -9
18 -14 18 -4 0 -31 -43 -59 -95 -28 -53 -93 -160 -145 -238 -165 -249 -256
-448 -320 -698 -38 -147 -73 -399 -62 -442 3 -15 15 -36 26 -47 19 -19 35 -20
490 -20 l471 0 24 25 c27 27 33 79 12 106 -28 37 -49 39 -394 39 l-338 0 154
154 c145 145 153 156 157 197 18 194 39 366 60 489 27 163 63 331 73 342 3 4
31 -9 61 -28 73 -46 156 -71 287 -85 308 -33 634 54 898 239 84 59 223 187
213 197 -3 4 -33 1 -65 -6 -35 -9 -118 -13 -213 -13 -138 1 -164 3 -243 27
-125 38 -185 71 -194 105 -14 52 7 97 52 112 27 9 43 6 106 -19 85 -34 136
-47 230 -56 118 -12 319 23 465 82 64 25 67 28 137 132 39 58 103 152 143 207
l72 101 -74 7 c-156 14 -315 69 -340 118 -18 34 -11 79 14 101 33 29 60 29
149 -2 106 -36 243 -56 336 -48 65 6 70 8 130 62 82 75 222 167 382 253 117
62 318 178 478 275 l58 35 -73 39 c-83 45 -106 76 -91 127 6 20 21 37 44 50
l35 19 85 -41 c87 -42 147 -62 187 -62 44 0 252 155 411 306 286 272 483 608
571 977 27 114 57 313 49 321 -2 2 -42 -30 -89 -71z m-4479 -3924 c-11 -79
-23 -185 -27 -236 l-7 -91 -118 -118 -118 -118 15 65 c26 112 56 211 101 324
54 134 159 333 170 321 2 -2 -5 -68 -16 -147z"/>
<path d="M1245 235 c-36 -35 -35 -96 1 -124 l27 -21 1418 0 1418 0 25 23 c38
34 39 85 1 122 l-24 25 -1421 0 -1421 0 -24 -25z"/>
</g>
</svg>
